<svg version="1.1" baseProfile="tiny" xmlns="http://www.w3.org/2000/svg" xmlns:xlink="http://www.w3.org/1999/xlink" viewBox="0 0 100 100" xml:space="preserve"><path fill="#ffffff" d="M92.325,23.911l0.422-3.378l-3.518-1.266l0.422-3.378L46.904,0.5L4.156,15.889l6.793,54.348l2.703,1.502 l0.393,3.142l2.703,1.502l0.393,3.142L53.096,99.5L89.05,79.525l6.793-54.347L92.325,23.911z"/><polygon points="89.39,26.794 83.541,73.586 51.032,91.647 20.256,74.549 20.587,77.199 53.096,95.259 85.605,77.199 91.797,27.661"/><polygon fill="#444444" points="86.294,22.15 80.445,68.942 47.936,87.003 17.16,69.905 17.491,72.554 50,90.615 82.509,72.554 88.701,23.017"/><path fill="#770000" d="M46.904,4.44L8.203,18.372l6.192,49.538l32.509,18.061L79.413,67.91l6.192-49.538L46.904,4.44z M29.875,65.846h-9.804L44.84,11.545V30.37l-6.192,14.32h6.192v7.74h-9.804L29.875,65.846z M63.932,65.846l-5.16-13.416h-9.804 v-7.74h6.192l-6.192-14.32V11.545l24.769,54.301H63.932z"/></svg>
